<?xml version="1.0" standalone="no"?><!DOCTYPE svg PUBLIC "-//W3C//DTD SVG 1.1//EN" "http://www.w3.org/Graphics/SVG/1.1/DTD/svg11.dtd"><svg t="1562102514041" class="icon" viewBox="0 0 1141 1024" version="1.1" xmlns="http://www.w3.org/2000/svg" p-id="1961" xmlns:xlink="http://www.w3.org/1999/xlink" width="35.65625" height="32"><defs><style type="text/css"></style></defs><path d="M1096.224133 0H43.795482A45.485841 45.485841 0 0 0 0.01536 46.622987v930.754026a45.485841 45.485841 0 0 0 43.780122 46.622987h1052.428651a45.485841 45.485841 0 0 0 43.780122-46.622987V46.622987a45.485841 45.485841 0 0 0-43.780122-46.622987zM87.575604 93.245974h587.904498v162.04331H87.575604V93.245974z m964.868407 837.508052H87.575604V348.535258h964.868407v582.218768z m0-675.464742h-289.403665V93.245974h289.403665v162.04331z m-222.880622-26.722932h23.880067a46.736702 46.736702 0 0 0 0-93.245974h-23.880067a46.736702 46.736702 0 0 0 0 93.245974z m128.497501 0h23.311494a46.736702 46.736702 0 0 0 0-93.245974h-23.311494a46.736702 46.736702 0 0 0 0 93.245974z" p-id="1962" fill="#3e3e3e"></path></svg>