<?xml version="1.0" standalone="no"?><!DOCTYPE svg PUBLIC "-//W3C//DTD SVG 1.1//EN" "http://www.w3.org/Graphics/SVG/1.1/DTD/svg11.dtd"><svg t="1560052338461" class="icon" style="" viewBox="0 0 1210 1024" version="1.1" xmlns="http://www.w3.org/2000/svg" p-id="4162" xmlns:xlink="http://www.w3.org/1999/xlink" width="37.8125" height="32"><defs><style type="text/css"></style></defs><path d="M517.587974 506.412527a134.482163 134.482163 0 0 0-98.857417-40.735469h-162.841665a69.545917 69.545917 0 0 1-69.796443-69.796443v-23.24878a186.14055 186.14055 0 0 1 186.14055-186.090444h46.497558a47.249136 47.249136 0 0 0 46.547664-46.547664V46.948505a47.249136 47.249136 0 0 0-46.547664-46.547664h-46.497558a362.159864 362.159864 0 0 0-144.302768 29.461815A368.423005 368.423005 0 0 0 29.463819 228.329067 362.310179 362.310179 0 0 0 0.002004 372.631835v511.773776a138.991625 138.991625 0 0 0 139.592886 139.592886h279.135667a138.991625 138.991625 0 0 0 139.592886-139.592886V605.269944a134.482163 134.482163 0 0 0-40.735469-98.857417z m651.366662 0a134.482163 134.482163 0 0 0-98.857417-40.735469h-162.841666a69.545917 69.545917 0 0 1-69.796443-69.796443v-23.24878a186.14055 186.14055 0 0 1 186.14055-186.090444h46.497559a47.249136 47.249136 0 0 0 46.547663-46.547664V46.948505a47.249136 47.249136 0 0 0-46.547663-46.547664h-46.497559a362.159864 362.159864 0 0 0-144.302768 29.461815 368.423005 368.423005 0 0 0-198.466411 198.466411A362.310179 362.310179 0 0 0 651.368666 372.631835v511.773776a138.991625 138.991625 0 0 0 139.592886 139.592886h279.135667a138.991625 138.991625 0 0 0 139.592886-139.592886V605.269944a134.482163 134.482163 0 0 0-40.735469-98.857417z" fill="#3e3e3e" p-id="4163"></path></svg>