<?xml version="1.0" standalone="no"?><!DOCTYPE svg PUBLIC "-//W3C//DTD SVG 1.1//EN" "http://www.w3.org/Graphics/SVG/1.1/DTD/svg11.dtd"><svg t="1560052153408" class="icon" style="" viewBox="0 0 1024 1024" version="1.1" xmlns="http://www.w3.org/2000/svg" p-id="2556" xmlns:xlink="http://www.w3.org/1999/xlink" width="25" height="25"><defs><style type="text/css"></style></defs><path d="M899.723636 502.597818H977.454545v335.080727h-77.730909v-35.095272c-31.883636 29.812364-66.187636 44.730182-102.865454 44.730182-46.336 0-84.642909-16.756364-114.920727-50.222546-30.021818-34.187636-45.056-76.846545-45.056-128 0-50.222545 15.010909-92.066909 45.056-125.556364 30.045091-33.489455 67.653818-50.222545 112.849454-50.222545 38.981818 0 73.960727 16.058182 104.913455 48.174545v-38.888727z m-183.714909 166.516364c0 32.116364 8.610909 58.251636 25.786182 78.429091 17.664 20.410182 39.912727 30.626909 66.746182 30.626909 28.672 0 51.828364-9.867636 69.492364-29.602909 17.664-20.410182 26.484364-46.312727 26.484363-77.730909 0-31.418182-8.843636-57.344-26.484363-77.754182-17.664-19.968-40.587636-29.928727-68.817455-29.928727-26.600727 0-48.849455 10.077091-66.722909 30.254545-17.687273 20.433455-26.484364 45.661091-26.484364 75.706182zM394.007273 162.909091l269.870545 684.404364H562.269091l-75.357091-206.08H194.56l-77.451636 206.08H23.272727L292.398545 162.909091h101.632z m63.767272 401.617454l-115.153454-319.185454h-1.908364l-117.061818 319.185454h234.123636z" fill="#3e3e3e" p-id="2557"></path></svg>