<?xml version="1.0" standalone="no"?><!DOCTYPE svg PUBLIC "-//W3C//DTD SVG 1.1//EN" "http://www.w3.org/Graphics/SVG/1.1/DTD/svg11.dtd"><svg t="1560052257247" class="icon" style="" viewBox="0 0 1024 1024" version="1.1" xmlns="http://www.w3.org/2000/svg" p-id="1216" xmlns:xlink="http://www.w3.org/1999/xlink" width="25" height="25"><defs><style type="text/css"></style></defs><path d="M888 64H136c-39.6 0-72 32.4-72 72v752c0 39.6 32.4 72 72 72h752c39.6 0 72-32.4 72-72V136c0-39.6-32.4-72-72-72zM340.7 888H136.2l-0.1-0.1V737h204.7v151z m0-223H136V514h204.7v151z m0-223H136V292.1l0.1-0.1h204.5v150z m273.6 446H412.6V737h201.7v151z m0-223H412.7V514h201.7v151z m0-223H412.7V292h201.7v150zM888 887.9l-0.1 0.1H686.4V737H888v150.9z m0-222.9H686.3V514H888v151z m0-223H686.3V292h201.5l0.1 0.1 0.1 149.9z" p-id="1217" fill="#3e3e3e"></path></svg>