<?xml version="1.0" standalone="no"?><!DOCTYPE svg PUBLIC "-//W3C//DTD SVG 1.1//EN" "http://www.w3.org/Graphics/SVG/1.1/DTD/svg11.dtd"><svg t="1560052368140" class="icon" style="" viewBox="0 0 1147 1024" version="1.1" xmlns="http://www.w3.org/2000/svg" p-id="1204" xmlns:xlink="http://www.w3.org/1999/xlink" width="25" height="25"><defs><style type="text/css"></style></defs><path d="M1057.23773 0.01408H90.637687A89.001443 89.001443 0 0 0 0.014933 90.636834v842.740412A90.87875 90.87875 0 0 0 90.637687 1024h966.600043a92.926722 92.926722 0 0 0 90.622754-90.622754V90.636834A90.87875 90.87875 0 0 0 1057.23773 0.01408zM296.032196 154.081295a97.321328 97.321328 0 0 1 96.638672 96.681337 95.401355 95.401355 0 0 1-96.638672 96.638671 97.321328 97.321328 0 0 1-96.681337-96.638671 97.321328 97.321328 0 0 1 96.681337-96.681337z m-69.460378 733.856576a48.724663 48.724663 0 0 1-27.178293-9.045209 35.882173 35.882173 0 0 1-3.029291-54.356586l187.261425-262.780387a41.599428 41.599428 0 0 1 54.356586-6.058583l163.112423 114.771755 292.987972-314.150347c15.103792-15.103792 87.593462-93.652046 129.875547-6.058583V884.908579c0 3.029292-797.429035 3.029292-797.429035 3.029292z m0 0" fill="#dbdbdb" p-id="1205"></path></svg>